<?xml version="1.0" standalone="no"?>
<!DOCTYPE svg PUBLIC "-//W3C//DTD SVG 20010904//EN">
<svg version="1.0" xmlns="http://www.w3.org/2000/svg"
 width="1258.933403pt" height="1787.276585pt" viewBox="0 0 1258.933403 1787.276585"
 preserveAspectRatio="xMidYMid meet">

<g transform="translate(-229.000000,1894.786953) scale(0.100000,-0.100000)"
fill="#ffff" stroke="none">
<path d="M11170 18935 c-188 -30 -334 -91 -461 -193 -106 -85 -168 -151 -267
-288 -116 -161 -112 -157 -295 -323 -52 -46 -68 -90 -74 -197 -6 -105 3 -132
68 -204 117 -130 152 -190 237 -405 34 -86 36 -95 35 -210 0 -131 -23 -227
-55 -233 -24 -5 -84 79 -102 141 -13 46 -30 151 -51 312 -21 155 -129 296
-293 383 -56 30 -206 72 -256 72 -14 0 -45 5 -68 10 -194 45 -229 48 -386 24
-122 -18 -185 -44 -260 -108 -76 -65 -108 -86 -130 -86 -11 0 -49 14 -83 32
-103 50 -131 49 -251 -11 -138 -68 -192 -110 -223 -171 -14 -27 -25 -57 -25
-65 0 -9 -11 -35 -25 -58 -28 -49 -55 -153 -55 -217 0 -25 5 -80 12 -123 l12
-77 -35 -36 c-19 -19 -74 -63 -124 -96 -252 -171 -574 -438 -950 -788 -124
-116 -400 -385 -880 -861 -242 -240 -465 -458 -495 -485 -30 -26 -79 -72 -107
-101 -45 -45 -53 -59 -53 -91 0 -40 30 -91 69 -119 12 -8 21 -21 21 -30 0 -28
-69 -110 -168 -200 -248 -226 -256 -236 -227 -298 37 -76 167 -167 302 -210
28 -9 54 -23 57 -31 7 -19 -20 -78 -112 -239 -41 -71 -108 -195 -150 -275 -90
-175 -153 -286 -205 -362 -60 -90 -63 -164 -6 -193 27 -15 62 -15 327 -6 163
6 347 16 407 21 175 16 444 30 574 30 95 0 123 -3 135 -16 27 -27 18 -60 -37
-130 -139 -179 -183 -275 -222 -489 -22 -123 -20 -161 11 -190 15 -14 37 -25
49 -25 12 0 53 22 91 48 101 71 219 112 389 136 75 10 145 37 181 68 43 38 65
80 115 221 31 88 39 124 39 181 0 39 4 76 8 82 4 5 33 16 65 24 l58 13 72 -36
c78 -40 137 -48 173 -22 27 18 58 92 74 170 20 104 31 136 48 142 9 4 45 -2
81 -11 199 -55 293 -76 394 -87 l113 -13 57 33 c89 51 138 105 171 190 46 118
51 190 36 539 -14 327 -9 774 10 937 6 50 18 151 26 225 14 118 26 192 64 405
9 51 36 207 65 390 26 156 15 145 144 138 165 -9 224 9 308 95 35 35 67 62 70
58 11 -10 3 -166 -12 -256 -8 -47 -26 -161 -40 -255 -13 -93 -35 -204 -49
-245 -28 -90 -42 -156 -56 -269 -26 -222 53 -618 184 -916 7 -16 24 -55 37
-85 30 -72 250 -506 281 -556 14 -22 40 -66 58 -99 18 -33 45 -80 58 -105 14
-25 58 -97 99 -160 95 -149 153 -268 153 -314 0 -51 -31 -107 -96 -172 l-57
-56 7 -83 c5 -62 3 -93 -8 -126 -28 -79 -22 -106 34 -161 49 -48 50 -51 50
-108 0 -49 4 -64 26 -90 25 -29 26 -33 14 -76 -11 -38 -10 -54 5 -109 17 -63
17 -65 -4 -99 -12 -19 -52 -60 -89 -91 -153 -131 -471 -442 -614 -600 -197
-220 -538 -706 -808 -1155 -165 -275 -277 -485 -532 -1000 -137 -278 -308
-622 -378 -765 -458 -924 -1045 -1823 -1695 -2595 -167 -198 -328 -371 -546
-586 -231 -228 -367 -347 -823 -722 -96 -79 -327 -248 -521 -382 -132 -91
-608 -390 -621 -390 -2 0 -21 -11 -42 -24 -94 -61 -479 -258 -615 -314 -143
-59 -251 -117 -284 -151 -28 -29 -33 -41 -33 -84 0 -64 26 -105 93 -150 53
-35 66 -43 222 -130 95 -53 359 -187 368 -187 3 0 41 -16 84 -36 43 -20 100
-45 128 -55 27 -11 59 -24 70 -29 33 -15 216 -86 290 -113 39 -14 102 -36 140
-50 91 -33 172 -59 265 -87 41 -12 86 -26 100 -31 32 -12 404 -105 495 -125
101 -21 312 -64 370 -74 232 -41 592 -97 765 -119 47 -6 171 -22 275 -35 345
-44 535 -63 910 -90 728 -53 974 -61 2030 -61 1038 0 1338 9 1995 60 102 8
257 19 345 25 88 7 255 20 370 31 116 11 266 24 335 29 69 5 168 14 220 20 52
6 163 17 245 25 252 25 551 59 720 81 61 8 148 19 195 25 47 6 139 20 205 31
66 10 149 24 184 29 99 15 351 58 401 69 25 6 90 19 145 30 55 11 143 29 195
41 52 11 127 25 165 30 92 12 170 37 192 61 14 16 18 37 17 97 0 61 -13 124
-68 326 -100 369 -132 481 -161 575 -39 124 -71 244 -117 430 -66 277 -68 289
-78 475 -13 258 -54 865 -65 955 -8 68 -24 320 -36 540 -10 202 -26 356 -54
520 -28 160 -32 179 -78 360 -24 96 -52 209 -61 250 -9 41 -23 102 -31 135
-100 430 -97 751 16 1425 17 96 32 182 34 190 3 8 9 44 14 80 11 68 29 173 56
325 9 50 21 115 26 145 5 30 17 93 25 140 8 47 19 110 24 140 9 53 69 380 89
485 6 28 17 100 26 160 9 61 23 151 30 200 15 100 29 220 50 434 7 79 17 147
22 151 4 4 44 20 88 35 153 53 249 109 287 169 32 52 19 173 -37 338 -148 433
-286 863 -358 1118 -9 30 -27 93 -40 140 -67 232 -91 384 -113 715 -14 202
-15 272 -5 445 12 218 35 490 51 605 5 39 16 133 25 210 18 162 46 380 74 580
59 417 36 1009 -49 1291 -82 272 -293 496 -567 601 -148 56 -370 109 -558 134
-49 6 -124 17 -165 25 l-75 14 -94 97 c-52 54 -118 133 -148 176 -62 88 -92
108 -178 116 l-60 6 -41 83 c-50 103 -86 210 -120 367 -39 176 -42 192 -69
410 -43 347 -70 426 -210 625 -103 146 -240 271 -381 348 -164 89 -370 120
-574 87z m-475 -1045 c105 -128 187 -174 340 -190 109 -12 149 -23 191 -55 47
-36 109 -116 134 -173 25 -55 66 -102 91 -102 24 0 66 53 79 98 16 58 12 147
-11 241 -33 136 -16 223 51 251 40 16 87 0 138 -49 67 -64 111 -175 112 -280
0 -45 1 -46 173 -215 120 -120 204 -212 276 -309 57 -75 134 -166 172 -201 38
-35 69 -70 69 -78 0 -20 -44 -80 -161 -219 -116 -138 -167 -183 -274 -238
-107 -57 -119 -69 -133 -143 -15 -79 -39 -104 -109 -113 -51 -7 -53 -6 -64 22
-6 15 -16 58 -24 95 -16 84 -52 147 -127 221 -54 52 -62 57 -103 57 -32 0 -68
-11 -124 -39 -103 -51 -204 -91 -230 -91 -26 0 -90 57 -138 124 -20 28 -52 68
-70 89 -18 20 -33 46 -33 56 0 11 -11 32 -24 47 -23 27 -25 28 -64 15 -54 -18
-77 -3 -69 45 7 43 -23 64 -92 64 -46 0 -51 2 -57 27 -4 14 -2 61 5 103 8 56
9 102 1 170 -9 80 -8 96 5 117 16 24 131 83 161 83 27 0 69 28 83 54 11 20 12
30 1 56 -23 56 -80 66 -158 26 -59 -29 -112 -39 -144 -27 -27 10 -47 46 -85
154 -14 39 -34 90 -44 112 -29 59 -35 119 -15 150 26 39 156 126 185 123 17
-2 45 -27 86 -78z m-748 -462 c43 -70 74 -174 85 -288 11 -126 12 -165 3 -206
-6 -29 -2 -35 57 -85 36 -30 92 -75 125 -101 68 -52 101 -91 136 -163 40 -81
40 -104 4 -165 -58 -96 -66 -115 -67 -152 0 -25 8 -46 26 -67 25 -30 26 -36
25 -153 0 -67 -4 -125 -8 -129 -5 -5 -51 -13 -103 -19 -130 -15 -168 -26 -200
-62 -54 -58 -65 -120 -64 -348 1 -161 6 -232 22 -330 36 -205 31 -214 -69
-152 -75 45 -140 72 -173 72 -13 0 -43 7 -67 16 -31 11 -81 16 -171 16 -97 0
-128 4 -132 14 -3 7 -1 37 4 66 56 317 60 380 36 514 -8 44 -17 93 -19 109 -3
17 -12 68 -21 115 -9 47 -23 127 -31 179 l-15 93 -64 69 c-106 111 -148 203
-150 322 -1 62 2 71 24 89 21 17 34 19 77 15 67 -7 101 -31 159 -113 25 -36
59 -71 75 -79 43 -23 96 -19 124 9 23 23 23 27 18 139 -7 140 -5 145 98 288
127 177 179 307 179 450 0 36 3 69 7 72 17 18 45 4 70 -35z m-1263 -5 c60 -40
66 -55 40 -104 -8 -17 -14 -32 -12 -34 2 -2 18 3 36 12 27 13 38 14 77 2 49
-14 80 -48 71 -77 -3 -9 -27 -39 -52 -65 -43 -45 -45 -50 -30 -66 37 -41 8
-91 -53 -91 -29 0 -44 7 -65 31 -32 35 -52 33 -48 -5 7 -69 -71 -140 -131
-117 -32 12 -39 38 -35 117 l3 59 -35 3 c-19 2 -47 13 -63 24 -24 17 -28 26
-25 62 3 39 6 42 61 70 51 25 60 27 87 16 17 -7 30 -20 30 -30 0 -24 11 -32
27 -19 19 16 16 37 -7 44 -31 10 -26 70 12 144 17 33 37 61 43 61 7 0 38 -17
69 -37z m-213 -84 c36 -36 9 -63 -31 -31 -15 12 -21 25 -17 35 8 23 23 21 48
-4z m-52 -567 c61 -86 135 -265 201 -482 18 -58 37 -111 43 -119 20 -24 12
-197 -13 -286 -54 -196 -72 -267 -95 -375 -27 -130 -60 -354 -70 -480 -4 -47
-13 -125 -21 -175 -8 -49 -21 -153 -30 -230 -8 -77 -20 -174 -25 -215 -13
-107 -38 -442 -44 -600 -6 -140 -40 -506 -55 -588 -6 -40 -44 -183 -78 -297
-14 -48 -37 -47 -397 21 -191 36 -284 42 -324 21 -19 -9 -30 -28 -43 -77 -58
-206 -59 -207 -99 -191 -13 5 -49 17 -80 25 -32 10 -85 38 -124 66 -86 64
-107 64 -165 4 -68 -69 -67 -69 -178 -35 -167 51 -181 52 -455 41 -424 -17
-850 -41 -892 -50 -23 -5 -44 -5 -49 0 -9 9 34 97 167 350 28 52 104 202 170
333 127 254 145 308 111 339 -27 23 -119 58 -155 58 -17 0 -53 11 -81 25 -27
14 -56 25 -64 25 -8 0 -14 7 -14 15 0 8 4 15 9 15 5 0 40 30 77 68 38 37 104
95 147 130 126 102 144 168 82 288 l-35 67 25 36 c24 36 827 839 1060 1061
255 243 811 749 943 858 204 168 497 382 524 382 4 0 16 -13 27 -28z m4241
-69 c0 -59 -29 -124 -132 -298 -26 -44 -61 -118 -78 -165 -17 -47 -45 -119
-62 -160 -22 -53 -31 -89 -30 -123 2 -53 -13 -90 -51 -126 l-26 -23 -20 33
c-28 45 -26 81 4 117 14 17 25 36 25 43 0 8 -21 40 -48 72 -80 99 -92 119 -92
153 0 29 19 52 173 206 95 95 196 205 224 243 76 103 82 109 99 94 9 -7 14
-31 14 -66z m-1987 -178 c76 -36 118 -74 206 -187 94 -121 154 -158 252 -158
65 0 196 36 256 70 62 35 83 37 109 9 13 -15 18 -36 19 -77 0 -47 -5 -63 -27
-93 -16 -20 -28 -41 -28 -48 0 -27 -43 -93 -68 -103 -15 -7 -71 -45 -124 -85
-54 -40 -146 -103 -205 -139 -123 -75 -230 -159 -267 -207 -13 -17 -33 -52
-44 -77 -41 -97 -62 -435 -42 -665 9 -99 10 -149 3 -156 -34 -34 -164 67 -320
251 -68 80 -134 164 -148 186 -27 45 -55 134 -76 249 -17 96 -18 390 -1 407 7
7 59 18 121 24 135 13 187 39 222 111 27 57 36 138 20 196 -9 31 -9 66 -2 129
8 69 7 95 -3 120 -11 28 -11 49 5 143 11 61 21 116 24 123 7 20 43 14 118 -23z
m1230 -686 c29 -40 41 -96 44 -219 1 -63 2 -117 3 -119 0 -2 9 4 19 13 18 17
23 16 95 -4 82 -23 110 -33 214 -82 37 -17 80 -34 96 -37 l30 -7 -2 -114 c-3
-129 -8 -182 -28 -257 -21 -86 -82 -230 -155 -370 -118 -226 -125 -259 -134
-613 -9 -347 -44 -632 -105 -850 -10 -36 -25 -99 -35 -140 -28 -127 -74 -266
-92 -283 -10 -8 -101 -56 -202 -106 -207 -102 -250 -112 -309 -68 -89 64 -195
140 -295 211 -158 111 -393 290 -522 396 -239 197 -594 476 -657 517 -67 44
-113 54 -136 31 -20 -20 -14 -33 27 -56 22 -12 98 -86 171 -165 158 -171 243
-252 461 -445 383 -340 507 -453 512 -467 4 -8 2 -52 -3 -97 -25 -218 -4 -438
72 -728 72 -276 105 -346 207 -442 42 -39 86 -74 99 -79 29 -11 85 1 194 42
190 72 211 78 242 72 43 -8 56 -28 56 -91 0 -60 24 -300 40 -397 5 -33 16
-116 25 -185 15 -113 27 -199 55 -375 9 -58 30 -206 50 -350 26 -185 65 -396
115 -620 8 -38 20 -90 25 -115 9 -44 14 -65 64 -245 14 -49 35 -124 46 -165
12 -41 35 -120 52 -175 17 -55 41 -136 55 -180 35 -114 146 -447 253 -755 50
-146 102 -296 115 -335 202 -590 244 -705 445 -1230 34 -88 83 -221 110 -295
26 -74 51 -144 55 -155 4 -11 18 -49 32 -85 14 -36 31 -81 38 -100 7 -19 24
-64 38 -100 14 -36 44 -117 67 -180 39 -108 205 -554 235 -630 7 -19 25 -69
40 -110 15 -41 31 -84 36 -95 35 -78 253 -721 378 -1115 29 -91 56 -176 61
-190 5 -14 18 -59 30 -100 29 -97 66 -216 95 -305 45 -135 73 -231 99 -340 26
-108 72 -287 101 -395 8 -30 15 -64 15 -76 0 -46 -15 -50 -475 -139 -225 -44
-652 -113 -800 -130 -27 -3 -79 -10 -115 -15 -36 -6 -123 -17 -195 -25 -71 -8
-161 -20 -200 -25 -38 -5 -142 -17 -230 -25 -88 -9 -200 -20 -250 -25 -217
-24 -676 -60 -1140 -90 -82 -5 -167 -12 -189 -15 -41 -6 -202 -17 -586 -40
-135 -8 -272 -17 -305 -20 -186 -16 -1208 -25 -1690 -16 -480 10 -1077 33
-1186 46 -25 3 -111 10 -190 15 -217 15 -653 53 -789 69 -47 6 -148 18 -225
26 -77 9 -171 20 -210 25 -180 24 -305 41 -360 50 -33 5 -105 17 -160 26 -55
8 -156 26 -225 40 -69 13 -161 31 -205 39 -150 29 -401 89 -545 130 -25 7 -65
18 -90 25 -373 103 -632 189 -807 266 -17 8 -34 14 -37 14 -3 0 -25 9 -49 19
-23 11 -100 45 -172 76 -143 63 -367 175 -404 204 -13 10 -21 23 -17 29 7 11
83 53 351 192 595 309 943 535 1525 994 644 507 1140 988 1552 1507 437 549
617 804 932 1319 250 409 341 565 426 725 29 55 69 129 88 165 56 105 327 648
364 730 19 41 45 100 58 130 34 78 336 680 416 830 181 338 534 891 618 969
70 65 48 -36 -72 -329 -52 -128 -85 -214 -137 -360 -72 -198 -108 -301 -126
-355 -33 -99 -139 -375 -170 -443 -16 -35 -29 -67 -29 -71 0 -3 -16 -45 -36
-91 -20 -47 -56 -134 -80 -195 -116 -287 -393 -871 -521 -1100 -22 -38 -58
-104 -80 -145 -180 -335 -556 -915 -963 -1485 -157 -221 -223 -322 -215 -334
3 -6 18 -11 32 -11 48 0 454 418 689 710 200 248 492 688 648 973 40 73 55
101 121 217 56 99 262 505 305 600 18 41 48 108 67 148 18 41 33 75 33 77 0 2
15 36 34 77 49 106 166 392 224 548 60 160 104 288 290 840 229 680 358 977
624 1437 60 104 146 226 229 323 30 36 75 92 98 125 67 92 90 113 145 131 39
13 69 35 123 89 40 40 77 85 83 101 12 31 6 74 -11 74 -6 0 -44 14 -85 31 -83
35 -95 57 -44 84 31 16 60 61 60 92 0 42 -27 61 -106 74 -81 13 -104 27 -104
63 0 33 29 54 90 66 62 12 63 13 79 59 16 49 2 61 -70 61 -51 0 -61 3 -74 24
-9 14 -15 37 -13 53 3 25 15 34 104 79 56 28 110 54 120 57 135 44 278 130
290 175 8 29 -4 42 -68 78 -50 27 -59 28 -168 28 -83 -1 -131 -6 -169 -19 -65
-21 -49 -38 -166 167 -47 81 -137 231 -200 333 -63 103 -115 189 -115 191 0 2
-19 34 -42 71 -67 110 -271 531 -301 623 -46 142 -58 193 -89 375 -19 117 -17
318 5 378 47 131 95 189 197 236 45 21 70 26 135 26 70 0 88 -4 145 -32 117
-57 202 -161 426 -523 199 -320 296 -441 599 -748 260 -265 473 -456 568 -510
93 -53 119 -22 142 171 9 74 40 221 71 345 98 386 98 389 98 567 -1 173 -3
188 -78 400 -105 301 -117 403 -95 800 9 165 14 202 28 213 23 19 145 12 147
-8 1 -8 10 -96 20 -195 9 -99 21 -184 25 -189 13 -14 85 71 121 144 31 60 33
73 36 180 3 110 2 117 -22 153 -14 21 -26 49 -26 63 0 40 50 109 74 101 5 -2
18 -15 29 -28z m840 -692 c53 -35 163 -144 236 -237 47 -59 53 -98 19 -120
-69 -43 -181 -86 -303 -114 -89 -21 -223 -22 -231 -2 -7 18 9 80 51 191 18 50
48 131 66 180 41 114 55 135 86 135 13 0 47 -15 76 -33z m-2448 -482 c33 -49
70 -95 81 -100 10 -6 37 -22 59 -37 46 -30 77 -40 190 -63 231 -47 330 -77
436 -130 177 -90 272 -167 317 -258 38 -76 41 -133 13 -204 -45 -113 -184
-383 -197 -383 -7 0 -33 21 -56 48 -24 26 -88 90 -143 142 -194 185 -393 386
-442 446 -57 70 -174 256 -286 455 -74 132 -85 158 -70 173 17 17 40 -5 98
-89z m-3341 -2114 c3 -4 -1 -43 -9 -86 -8 -42 -15 -125 -15 -185 0 -80 -4
-111 -14 -119 -22 -19 -26 -2 -37 142 -5 72 -15 149 -21 169 -13 45 -2 63 46
77 42 12 44 12 50 2z m4204 -37 c8 -2 12 -33 12 -106 1 -175 39 -389 110 -618
57 -185 63 -206 55 -230 -6 -19 -61 -35 -88 -25 -13 6 -75 154 -107 256 -46
152 -92 709 -59 730 12 7 39 5 77 -7z m-4470 -346 c32 -32 -13 -109 -72 -124
-56 -14 -58 23 -6 95 30 41 56 51 78 29z"/>
<path d="M8513 17124 c-7 -20 11 -38 32 -30 13 4 14 10 5 26 -13 24 -28 26
-37 4z"/>
<path d="M8733 17133 c-17 -6 -17 -33 0 -33 21 0 40 17 33 29 -8 12 -13 12
-33 4z"/>
<path d="M7825 16219 c-77 -56 -537 -518 -532 -534 2 -5 18 -11 35 -13 114
-11 409 250 555 490 36 60 44 98 22 104 -5 2 -41 -20 -80 -47z"/>
<path d="M7918 15904 c-116 -120 -189 -227 -450 -658 -43 -71 -101 -176 -129
-235 -84 -175 -150 -302 -189 -366 -37 -60 -58 -98 -120 -210 -18 -33 -61
-103 -96 -156 -67 -100 -75 -125 -47 -136 12 -5 30 8 61 43 57 62 215 275 317
424 43 63 106 151 140 196 90 117 158 220 211 320 26 49 57 105 69 124 12 19
41 73 65 120 24 47 53 101 65 120 33 53 119 229 139 285 11 28 22 55 26 60 15
21 42 116 36 130 -10 26 -25 17 -98 -61z"/>
<path d="M8058 15288 c-17 -18 -57 -78 -90 -133 -33 -55 -81 -131 -107 -170
-26 -38 -70 -122 -99 -185 -47 -106 -69 -165 -153 -413 -17 -49 -48 -118 -70
-154 -56 -91 -42 -122 26 -61 36 31 304 382 344 449 23 38 64 182 100 344 12
55 43 151 68 213 42 106 48 142 22 142 -6 0 -25 -15 -41 -32z"/>
<path d="M9587 6933 c-13 -21 -45 -90 -71 -153 -142 -341 -464 -920 -722
-1296 -37 -54 -99 -146 -137 -204 -112 -168 -218 -310 -395 -530 -391 -485
-636 -751 -983 -1070 -62 -58 -150 -140 -194 -182 -76 -73 -79 -78 -63 -94 16
-16 20 -16 45 -3 44 22 179 125 458 349 389 312 638 557 941 925 196 237 481
652 616 895 14 25 49 87 77 138 63 112 183 360 241 497 36 86 173 494 225 667
27 93 5 130 -38 61z"/>
</g>
</svg>
