<?xml version="1.0" encoding="UTF-8"?>
<!DOCTYPE svg PUBLIC "-//W3C//DTD SVG 1.1//EN" "http://www.w3.org/Graphics/SVG/1.1/DTD/svg11.dtd">
<svg xmlns="http://www.w3.org/2000/svg"
     style="background: transparent; background-color: transparent; color-scheme: light dark;"
     version="1.1" width="179px" height="234px" viewBox="-0.5 -0.5 179 234"><defs/><g><g data-cell-id="0"><g data-cell-id="1"><g data-cell-id="GKtDv5uGQRJIcgXnQj3i-1"><g><rect x="9" y="6" width="160" height="220" fill="#d0d0d2" stroke="none" transform="rotate(-5,89,116)" pointer-events="all" style="fill: rgb(208, 208, 210);"/></g></g><g data-cell-id="GKtDv5uGQRJIcgXnQj3i-2"><g><rect x="9" y="6" width="160" height="220" fill="#707d60" stroke="none" pointer-events="all" style="fill: light-dark(rgb(112, 125, 96));"/></g></g><g data-cell-id="GKtDv5uGQRJIcgXnQj3i-10"><g><path d="M 9 106.42 L 38.84 106.11 Q 48.84 106 58.84 106 L 88.84 106 Q 98.84 106 108.84 106 L 138.84 106 Q 148.84 106 153.84 111 L 156.34 113.5 Q 158.84 116 158.84 121 L 158.84 123.5 Q 158.84 126 158.84 131 L 158.84 133.5 Q 158.84 136 153.84 141 L 151.34 143.5 Q 148.84 146 138.84 146 L 89.16 146 Q 79.16 146 69.16 146 L 38.84 146 Q 28.84 146 23.84 150.5 L 21.34 152.75 Q 18.84 155 18.84 165 L 18.84 170.5 Q 18.84 176 23.84 180.5 L 26.34 182.75 Q 28.84 185 38.83 185.5 L 43.83 185.75 Q 48.84 186 58.84 186 L 98.84 186 Q 108.84 186 118.84 185.83 L 166.84 185" fill="none" stroke="F6FFEB" stroke-opacity="0.4" stroke-miterlimit="10" stroke-dasharray="3 3" pointer-events="stroke" style="stroke: #F6FFEB;"/></g></g></g></g></g></svg>
